<svg xmlns="http://www.w3.org/2000/svg" viewBox="0 0 64 64" role="img" aria-label="Shh.">
  <!-- Фавікон Shh.: чорний квадрат, біла S (гліф як path — без залежності
       від встановлених шрифтів), фірмова squircle-крапка -->
  <rect width="64" height="64" rx="14" fill="#0E1214"/>
  <path d="M27.9 51.4q-6.5 0-9.55-2.55T14.9 41.9l7.6-.25q.35 1.9 1.55 2.95t3.75 1.05q4.15 0 4.15-2.7 0-.85-.4-1.4t-1.55-.98-3.4-.87q-4.2-.75-6.58-1.78t-3.35-2.6-.98-3.87q0-3.85 3-6.23t8.95-2.37q4 0 6.6 1.2t3.93 3.3 1.53 4.7l-7.5.3q-.1-1.85-1.23-3.02t-3.42-1.18q-2 0-3.05.83t-1.05 2.17q0 1.45 1.03 2.18t3.77 1.12q4.25.65 6.75 1.7t3.58 2.65 1.08 3.85q0 3.9-3.2 6t-8.55 2.1Z" fill="#FFFFFF"/>
  <rect x="42" y="37" width="14" height="14" rx="4" fill="#94CB1C"/>
</svg>
